<svg width="22" height="18" viewBox="0 0 22 18" fill="none" xmlns="http://www.w3.org/2000/svg">
<path d="M1 17H3M3 17H14M3 17V11.3682C3 10.8428 3 10.58 3.063 10.335C3.11883 10.1178 3.21073 9.91184 3.33496 9.72518C3.47505 9.51468 3.67114 9.33842 4.06152 8.9877L6.3631 6.91997C7.11784 6.24192 7.49549 5.90264 7.92249 5.77393C8.29894 5.66045 8.7007 5.66045 9.07715 5.77393C9.50451 5.90275 9.88267 6.2422 10.6387 6.92139L12.9387 8.9877C13.3295 9.33881 13.5245 9.51456 13.6647 9.72518C13.7889 9.91184 13.8807 10.1178 13.9365 10.335C13.9995 10.58 14 10.8428 14 11.3682V17M14 17H19M19 17H21M19 17V4.19691C19 3.07899 19 2.5192 18.7822 2.0918C18.5905 1.71547 18.2837 1.40973 17.9074 1.21799C17.4796 1 16.9203 1 15.8002 1H9.2002C8.08009 1 7.51962 1 7.0918 1.21799C6.71547 1.40973 6.40973 1.71547 6.21799 2.0918C6 2.51962 6 3.08009 6 4.2002V7.0002" stroke="#172426" stroke-width="2" stroke-linecap="round" stroke-linejoin="round"/>
</svg>
