<svg width="16" height="16" viewBox="0 0 16 16" fill="none" xmlns="http://www.w3.org/2000/svg">
<path d="M7.99996 5.33406L2.66663 10.6674V13.3341L5.33329 13.334L10.6666 8.00072M7.99996 5.33406L9.91238 3.42163L9.91353 3.42049C10.1768 3.15724 10.3086 3.02538 10.4606 2.97599C10.5945 2.93248 10.7388 2.93248 10.8727 2.97599C11.0246 3.02534 11.1563 3.15705 11.4192 3.41993L12.579 4.5798C12.843 4.84381 12.9751 4.97588 13.0246 5.1281C13.0681 5.26199 13.0681 5.40622 13.0246 5.54012C12.9751 5.69223 12.8433 5.82409 12.5796 6.08773L12.579 6.08829L10.6666 8.00072M7.99996 5.33406L10.6666 8.00072" stroke="#F5F6FD" stroke-width="2" stroke-linecap="round" stroke-linejoin="round"/>
</svg>
