<svg width="20" height="20" viewBox="0 0 20 20" fill="none" xmlns="http://www.w3.org/2000/svg">
<path d="M9.99999 10V15M9.99999 15L12.5 13.3333M9.99999 15L7.49999 13.3333M10.8333 2.50072C10.7537 2.5 10.6644 2.5 10.5623 2.5H6.83349C5.90007 2.5 5.43301 2.5 5.07649 2.68166C4.76288 2.84144 4.5081 3.09623 4.34831 3.40983C4.16666 3.76635 4.16666 4.23341 4.16666 5.16683V14.8335C4.16666 15.7669 4.16666 16.2334 4.34831 16.5899C4.5081 16.9035 4.76288 17.1587 5.07649 17.3185C5.43266 17.5 5.89915 17.5 6.83075 17.5H13.1692C14.1008 17.5 14.5666 17.5 14.9228 17.3185C15.2364 17.1587 15.4921 16.9035 15.6518 16.5899C15.8333 16.2337 15.8333 15.7679 15.8333 14.8363V7.7714C15.8333 7.66913 15.8333 7.57967 15.8325 7.5M10.8333 2.50072C11.0714 2.50289 11.2219 2.51154 11.3657 2.54605C11.5358 2.58688 11.6982 2.65439 11.8473 2.74577C12.0155 2.8488 12.1598 2.99318 12.4479 3.28125L15.0525 5.88582C15.3407 6.17407 15.484 6.3178 15.5871 6.48599C15.6785 6.63511 15.7461 6.79771 15.7869 6.96777C15.8214 7.11147 15.8303 7.26209 15.8325 7.5M10.8333 2.50072V4.83333C10.8333 5.76675 10.8333 6.23314 11.015 6.58966C11.1748 6.90326 11.4296 7.15873 11.7432 7.31852C12.0993 7.5 12.5658 7.5 13.4974 7.5H15.8325M15.8325 7.5H15.8335" stroke="#0469FF" stroke-width="1.5" stroke-linecap="round" stroke-linejoin="round"/>
</svg>
