<svg width="23" height="20" viewBox="0 0 23 20" fill="none" xmlns="http://www.w3.org/2000/svg">
<path d="M1.55725 18.1712H3.55725M3.55725 18.1712H9.55725M3.55725 18.1712V9.62337C3.55725 9.08902 3.55725 8.82172 3.62222 8.57307C3.6798 8.35273 3.77504 8.14421 3.90295 7.95578C4.04729 7.74316 4.24789 7.56684 4.65002 7.21497L9.45161 3.01358C10.1971 2.36128 10.5699 2.03511 10.9897 1.91096C11.3599 1.80149 11.7544 1.80149 12.1246 1.91096C12.5448 2.03521 12.9181 2.36168 13.6647 3.01497L18.4647 7.21497C18.8668 7.56683 19.0675 7.74316 19.2118 7.95578C19.3397 8.14421 19.4342 8.35273 19.4918 8.57307C19.5568 8.82172 19.5573 9.08903 19.5573 9.62337V18.1712M9.55725 18.1712H13.5573M9.55725 18.1712V14.1712C9.55725 13.0666 10.4527 12.1712 11.5573 12.1712C12.6618 12.1712 13.5573 13.0666 13.5573 14.1712V18.1712M13.5573 18.1712H19.5573M19.5573 18.1712H21.5573" stroke="#172426" stroke-width="2" stroke-linecap="round" stroke-linejoin="round"/>
</svg>
